<mxfile host="Electron" modified="2024-06-25T00:00:29.916Z" agent="Mozilla/5.0 (X11; Linux x86_64) AppleWebKit/537.36 (KHTML, like Gecko) draw.io/24.5.3 Chrome/124.0.6367.207 Electron/30.0.6 Safari/537.36" etag="Ou5d-L881UzVvxT_O-HO" version="24.5.3" type="device">
  <diagram name="Page-1" id="cZKSdX-PYtSHhiHaHxfv">
    <mxGraphModel dx="1434" dy="838" grid="1" gridSize="10" guides="1" tooltips="1" connect="1" arrows="1" fold="1" page="1" pageScale="1" pageWidth="850" pageHeight="1100" math="0" shadow="0">
      <root>
        <mxCell id="0" />
        <mxCell id="1" parent="0" />
        <mxCell id="r-yxVrEPXKnyc0eZPdS1-5" style="edgeStyle=orthogonalEdgeStyle;rounded=0;orthogonalLoop=1;jettySize=auto;html=1;entryX=0;entryY=0.5;entryDx=0;entryDy=0;" parent="1" source="r-yxVrEPXKnyc0eZPdS1-1" target="r-yxVrEPXKnyc0eZPdS1-2" edge="1">
          <mxGeometry relative="1" as="geometry" />
        </mxCell>
        <mxCell id="r-yxVrEPXKnyc0eZPdS1-6" value="Player presses launch button&lt;div&gt;&lt;br&gt;&lt;/div&gt;" style="edgeLabel;html=1;align=center;verticalAlign=middle;resizable=0;points=[];" parent="r-yxVrEPXKnyc0eZPdS1-5" vertex="1" connectable="0">
          <mxGeometry x="0.1286" y="-1" relative="1" as="geometry">
            <mxPoint x="-23" y="-1" as="offset" />
          </mxGeometry>
        </mxCell>
        <mxCell id="r-yxVrEPXKnyc0eZPdS1-1" value="staged" style="ellipse;whiteSpace=wrap;html=1;aspect=fixed;" parent="1" vertex="1">
          <mxGeometry x="60" y="130" width="80" height="80" as="geometry" />
        </mxCell>
        <mxCell id="r-yxVrEPXKnyc0eZPdS1-8" style="edgeStyle=orthogonalEdgeStyle;rounded=0;orthogonalLoop=1;jettySize=auto;html=1;exitX=1;exitY=0;exitDx=0;exitDy=0;entryX=0.5;entryY=1;entryDx=0;entryDy=0;" parent="1" source="r-yxVrEPXKnyc0eZPdS1-2" target="r-yxVrEPXKnyc0eZPdS1-7" edge="1">
          <mxGeometry relative="1" as="geometry" />
        </mxCell>
        <mxCell id="r-yxVrEPXKnyc0eZPdS1-2" value="launching" style="ellipse;whiteSpace=wrap;html=1;aspect=fixed;" parent="1" vertex="1">
          <mxGeometry x="340" y="130" width="80" height="80" as="geometry" />
        </mxCell>
        <mxCell id="r-yxVrEPXKnyc0eZPdS1-13" style="edgeStyle=orthogonalEdgeStyle;rounded=0;orthogonalLoop=1;jettySize=auto;html=1;exitX=0.5;exitY=1;exitDx=0;exitDy=0;entryX=1;entryY=0.5;entryDx=0;entryDy=0;" parent="1" source="r-yxVrEPXKnyc0eZPdS1-3" target="r-yxVrEPXKnyc0eZPdS1-4" edge="1">
          <mxGeometry relative="1" as="geometry" />
        </mxCell>
        <mxCell id="r-yxVrEPXKnyc0eZPdS1-15" value="Player presses reset button" style="edgeLabel;html=1;align=center;verticalAlign=middle;resizable=0;points=[];" parent="r-yxVrEPXKnyc0eZPdS1-13" vertex="1" connectable="0">
          <mxGeometry x="0.337" y="-1" relative="1" as="geometry">
            <mxPoint as="offset" />
          </mxGeometry>
        </mxCell>
        <mxCell id="r-yxVrEPXKnyc0eZPdS1-3" value="launched" style="ellipse;whiteSpace=wrap;html=1;aspect=fixed;" parent="1" vertex="1">
          <mxGeometry x="620" y="130" width="80" height="80" as="geometry" />
        </mxCell>
        <mxCell id="r-yxVrEPXKnyc0eZPdS1-14" style="edgeStyle=orthogonalEdgeStyle;rounded=0;orthogonalLoop=1;jettySize=auto;html=1;exitX=0;exitY=0.5;exitDx=0;exitDy=0;entryX=0.5;entryY=1;entryDx=0;entryDy=0;" parent="1" source="r-yxVrEPXKnyc0eZPdS1-4" target="r-yxVrEPXKnyc0eZPdS1-1" edge="1">
          <mxGeometry relative="1" as="geometry" />
        </mxCell>
        <mxCell id="r-yxVrEPXKnyc0eZPdS1-4" value="resetting" style="ellipse;whiteSpace=wrap;html=1;aspect=fixed;" parent="1" vertex="1">
          <mxGeometry x="345" y="300" width="80" height="80" as="geometry" />
        </mxCell>
        <mxCell id="r-yxVrEPXKnyc0eZPdS1-9" style="edgeStyle=orthogonalEdgeStyle;rounded=0;orthogonalLoop=1;jettySize=auto;html=1;exitX=0;exitY=0.5;exitDx=0;exitDy=0;entryX=0.5;entryY=0;entryDx=0;entryDy=0;" parent="1" source="r-yxVrEPXKnyc0eZPdS1-7" target="r-yxVrEPXKnyc0eZPdS1-2" edge="1">
          <mxGeometry relative="1" as="geometry" />
        </mxCell>
        <mxCell id="r-yxVrEPXKnyc0eZPdS1-10" value="Yes" style="edgeLabel;html=1;align=center;verticalAlign=middle;resizable=0;points=[];" parent="r-yxVrEPXKnyc0eZPdS1-9" vertex="1" connectable="0">
          <mxGeometry x="0.088" y="-1" relative="1" as="geometry">
            <mxPoint as="offset" />
          </mxGeometry>
        </mxCell>
        <mxCell id="r-yxVrEPXKnyc0eZPdS1-11" style="edgeStyle=orthogonalEdgeStyle;rounded=0;orthogonalLoop=1;jettySize=auto;html=1;entryX=0;entryY=0.5;entryDx=0;entryDy=0;" parent="1" source="r-yxVrEPXKnyc0eZPdS1-7" target="r-yxVrEPXKnyc0eZPdS1-3" edge="1">
          <mxGeometry relative="1" as="geometry" />
        </mxCell>
        <mxCell id="r-yxVrEPXKnyc0eZPdS1-12" value="No" style="edgeLabel;html=1;align=center;verticalAlign=middle;resizable=0;points=[];" parent="r-yxVrEPXKnyc0eZPdS1-11" vertex="1" connectable="0">
          <mxGeometry x="0.1767" y="2" relative="1" as="geometry">
            <mxPoint y="1" as="offset" />
          </mxGeometry>
        </mxCell>
        <mxCell id="r-yxVrEPXKnyc0eZPdS1-7" value="rocket is in view" style="rhombus;whiteSpace=wrap;html=1;" parent="1" vertex="1">
          <mxGeometry x="425" width="100" height="100" as="geometry" />
        </mxCell>
        <mxCell id="r-yxVrEPXKnyc0eZPdS1-16" value="" style="rhombus;whiteSpace=wrap;html=1;" parent="1" vertex="1">
          <mxGeometry x="180" y="440" width="80" height="80" as="geometry" />
        </mxCell>
      </root>
    </mxGraphModel>
  </diagram>
</mxfile>
